<?xml version="1.0" encoding="UTF-8"?><svg width="58px" height="80px" viewBox="0 0 58 80" version="1.1" xmlns="http://www.w3.org/2000/svg" xmlns:xlink="http://www.w3.org/1999/xlink">    <!-- Generator: Sketch 57.1 (83088) - https://sketch.com -->    <title>Hot - Icon</title>    <desc>Created with Sketch.</desc>    <defs>        <linearGradient x1="50%" y1="19.9644886%" x2="50%" y2="112.567472%" id="linearGradient-1">            <stop stop-color="#EEFF01" offset="0%"></stop>            <stop stop-color="#FFEE69" stop-opacity="0" offset="100%"></stop>        </linearGradient>    </defs>    <g id="Hot---Icon" stroke="none" stroke-width="1" fill="none" fill-rule="evenodd">        <path d="M18.3786084,80 C18.3786084,80 10.9140222,70.0831539 14.2319341,60.8269744 C14.2319341,60.8269744 18.3786084,67.4382051 28.330913,68.7606795 C28.330913,68.7606795 23.3554764,63.4719231 29.1611066,54.2157436 C34.9667369,44.9584231 37.0393584,38.6780962 36.2105961,35.3724808 C36.2105961,35.3724808 55.6800692,56.6153671 40.7723672,80 C40.7723672,80 68.9717562,68.7606795 53.2138214,39.009 C37.4544552,9.25617949 54.871346,0 54.871346,0 C54.871346,0 29.0136757,6.3350972 25.6485286,35.2287088 C24.3187873,46.6437506 20.090525,50.0144057 20.090525,50.0144057 C20.090525,50.0144057 5.10839189,42.3146154 20.0375644,24.4629231 C20.0375644,24.4629231 -23.9197594,52.2314615 18.3786084,80 Z" id="Fill-1" fill="url(#linearGradient-1)"></path>    </g></svg>