<?xml version="1.0" encoding="UTF-8"?><svg width="77px" height="80px" viewBox="0 0 77 80" version="1.1" xmlns="http://www.w3.org/2000/svg" xmlns:xlink="http://www.w3.org/1999/xlink">    <!-- Generator: Sketch 57.1 (83088) - https://sketch.com -->    <title>Cold - Icon</title>    <desc>Created with Sketch.</desc>    <defs>        <linearGradient x1="50%" y1="0%" x2="50%" y2="112.567472%" id="linearGradient-1">            <stop stop-color="#FFFFFF" offset="0%"></stop>            <stop stop-color="#FFFFFF" stop-opacity="0" offset="100%"></stop>        </linearGradient>    </defs>    <g id="Cold---Icon" stroke="none" stroke-width="1" fill="none" fill-rule="evenodd">        <path d="M72.717685,42.8541509 L60.7580909,49.1823879 L43.5614198,38.9077025 L60.8061375,29.0879799 L72.828459,35.5773227 C73.2408588,35.8002932 73.6879589,35.9059786 74.1283859,35.9059786 C75.0639596,35.9059786 75.971506,35.4303942 76.4599796,34.5849108 C77.1793436,33.3424627 76.7202319,31.7713586 75.4323167,31.0779591 L66.1299653,26.0566126 L74.1577477,21.4850735 C75.4283128,20.7620306 75.850055,19.1819046 75.1013291,17.9562114 C74.3526033,16.7292294 72.7163504,16.3219539 71.4471199,17.0449969 L63.3712909,21.6423128 L63.3712909,11.3354062 C63.3712909,9.91251953 62.1767996,8.75771294 60.7020366,8.75771294 C59.2286082,8.75771294 58.0327822,9.91251953 58.0327822,11.3354062 L58.0327822,24.6827021 L41.0963634,34.3271415 L41.1484138,15.7651721 L53.0492843,8.54247555 C54.2984954,7.78463373 54.6735256,6.19419697 53.8900995,4.98912536 C53.1066733,3.78405374 51.4597434,3.41931014 50.2091977,4.17715197 L41.1644294,9.66634983 L41.1844488,2.58542637 C41.1884527,1.16125083 39.9966306,0.00386653993 38.5218676,0 C37.0084003,0.0090219265 35.849944,1.14836236 35.8459401,2.57124905 L35.8259207,9.68826022 L26.61032,4.10755425 C25.361109,3.35100127 23.7128445,3.71574487 22.9307529,4.92210533 C22.1473268,6.12846579 22.5263609,7.71890255 23.7742373,8.47545553 L35.8099051,15.7625944 L35.7578547,34.2446553 L18.8227705,24.1259203 L19.3766408,10.9887065 C19.436699,9.56581979 18.2915889,8.36590356 16.8181605,8.30790546 C15.323378,8.24088544 14.1021942,9.35573778 14.042136,10.7786245 L13.6110514,21.0120668 L7.85880826,17.5760017 C6.60559334,16.8246041 4.95999804,17.2009473 4.18457965,18.4111743 C3.40916126,19.6226901 3.79620315,21.2105492 5.05075269,21.9593691 L10.7149104,25.3438804 L1.49263664,30.3471831 C0.207390676,31.0444491 -0.249051817,32.6155532 0.472981484,33.8567125 C0.961455029,34.6983293 1.86900151,35.1726249 2.8019059,35.1726249 C3.24500212,35.1726249 3.69343685,35.0656506 4.10717128,34.8413913 L15.9012716,28.4422677 L33.2380786,38.8007282 L15.8799176,48.686182 L3.99239334,42.1427075 C2.708482,41.4377084 1.08023685,41.8694721 0.351530411,43.1041871 C-0.37984528,44.3414799 0.0672548233,45.9151617 1.34716228,46.6201608 L10.5801131,51.7033719 L4.68506484,55.0608175 C3.4158344,55.7838604 2.99275759,57.3639864 3.74148343,58.5896796 C4.23929937,59.4055195 5.12949569,59.8591935 6.0437153,59.8591935 C6.50416168,59.8591935 6.97128119,59.7431973 7.39702726,59.5008941 L13.4295421,56.0661178 L13.4295421,66.3730244 C13.4295421,67.7972 14.6240334,68.9507177 16.0987964,68.9507177 C17.5722248,68.9507177 18.7680508,67.7972 18.7680508,66.3730244 L18.7680508,53.0257286 L35.7324968,43.365823 L35.6791117,62.3737333 L23.8356302,69.1298674 C22.5650651,69.8541992 22.1446575,71.4356141 22.8933834,72.6600184 C23.6447785,73.8870004 25.282366,74.2942759 26.5502618,73.5699441 L35.6630962,68.3707367 L35.6377382,77.4158625 C35.6337344,78.8387492 36.8255564,79.9961335 38.2989848,80 L38.3069926,80 C39.7777517,80 40.9722431,78.8503488 40.9762469,77.4300398 L41.0002702,68.6594384 L50.3319834,73.671763 C50.7430486,73.8921558 51.1888141,73.9965523 51.6265718,73.9965523 C52.5648147,73.9965523 53.4750304,73.5183902 53.9621693,72.671618 C54.6788641,71.4265921 54.2157485,69.8580658 52.9264986,69.1659551 L41.0176204,62.7694092 L41.0710055,43.4805304 L57.9487007,53.5657553 L57.4228576,66.7261684 C57.3668032,68.1490551 58.5145826,69.3463936 59.9866764,69.4018141 C60.0227113,69.4031029 60.0574116,69.4031029 60.0921119,69.4031029 C61.5188284,69.4031029 62.7026427,68.3140275 62.7573624,66.9246508 L63.1670929,56.6834754 L70.9586464,61.3387895 C71.3964041,61.6004253 71.8822084,61.7254434 72.3600049,61.7254434 C73.2542051,61.7254434 74.1283859,61.2911021 74.632875,60.5036168 C75.4082934,59.292101 75.0212515,57.7042419 73.7680366,56.955422 L65.9751485,52.3001079 L75.2828384,47.3754249 C76.5760922,46.6910473 77.0498848,45.1250987 76.3411978,43.8762063 C75.6338454,42.6273139 74.0109387,42.1710622 72.717685,42.8541509" id="Fill-1" fill="url(#linearGradient-1)"></path>    </g></svg>